<?xml version="1.0" encoding="UTF-8"?><svg id="Layer_2" xmlns="http://www.w3.org/2000/svg" viewBox="0 0 245.53 50.45"><defs><style>.cls-1{fill:#fff;}</style></defs><g id="Layer_1-2"><path class="cls-1" d="m36.16,50.43s-.04,0-.06,0c-.15.02-.3.03-.46.03h-11.97c-1.59,0-2.84-.85-3.53-2.38l-1.05-2.35c-.04.1-.09.2-.13.3l-.95,2.06c-.68,1.52-1.94,2.36-3.52,2.36H2.54c-1.75,0-2.54-1.12-2.54-2.23,0-.43.12-.89.36-1.4l9.49-21.2c.07-.17.07-.31,0-.5C7.7,20.39,4.5,13.25.34,3.91c-.23-.49-.34-.94-.34-1.37C0,1.42.78.3,2.54.3h11.94c1.59,0,2.84.84,3.53,2.38l1.08,2.41c.06-.13.12-.28.19-.44.19-.43.47-1.09.86-1.97.69-1.54,1.94-2.39,3.53-2.39h11.97c.14,0,.28,0,.42.02.03,0,.06,0,.1-.01h.31s19.87-.13,19.87-.13h.12c4.51,0,8.45,1.25,11.7,3.71.62.47,1.21.98,1.75,1.53v-2.13c0-1.82,1.13-2.99,2.87-2.99l19.97-.12c4.44-.06,8.31,1.11,11.49,3.42v-.31c0-1.82,1.19-2.99,3.02-2.99h11.94c1.82,0,2.99,1.17,2.99,2.99v29.68s0,.03,0,.05h4.44c-.81-2.48-1.21-5.11-1.21-7.86,0-6.89,2.49-12.87,7.4-17.78,5.64-5.64,12.69-8.06,20.97-7.21,4.51.46,8.77,2.25,12.32,5.15,4.48,3.66,7.44,8.08,8.8,13.13,1.42,5.17,3.54,11.35,4.49,12.31,1.71,1.71,3.75,2.46,6.27,2.28,1.6-.11,3.15-.76,4.37-1.83,2.02-1.78,2.92-3.95,2.75-6.63-.11-1.66-.77-3.25-1.87-4.49-1.65-1.86-3.6-2.76-5.97-2.76-.84,0-1.64.12-2.39.35-1.14.36-2.35-.15-2.86-1.2-.8-1.66-3.6-7.27-5.91-9.98-.58-.68-.81-1.6-.62-2.46.18-.83.73-1.51,1.49-1.86,3.16-1.45,6.61-2.18,10.28-2.18,6.88,0,12.86,2.5,17.78,7.42.42.42.83.85,1.22,1.3V3.12c0-1.82,1.13-2.99,2.87-2.99L226.78,0c.07,0,.14,0,.2,0,5.32,0,9.78,1.71,13.24,5.07h0c3.51,3.42,5.3,7.9,5.3,13.33s-1.79,9.85-5.31,13.26c-3.51,3.39-8.02,5.11-13.41,5.11h-4.88v10.5c0,1.82-1.18,2.99-3,2.99h-11.99c-1.82,0-3-1.17-3-2.99v-5.59c-.39.45-.8.88-1.22,1.3-5.64,5.64-12.7,8.07-20.97,7.21-4.51-.46-8.76-2.25-12.32-5.15-4.48-3.67-7.44-8.08-8.8-13.13-1.42-5.17-3.54-11.35-4.49-12.31-1.69-1.69-3.72-2.43-6.19-2.28-1.66.11-3.26.78-4.51,1.89-1.98,1.76-2.86,3.92-2.69,6.58.11,1.66.77,3.25,1.87,4.49,1.58,1.78,3.44,2.68,5.69,2.75h.53c.68-.02,1.32-.1,1.89-.26,1.32-.37,2.65.21,3.22,1.39,1,2.05,3.58,7.1,5.79,9.72.57.68.8,1.6.6,2.46-.19.83-.74,1.51-1.51,1.86-3.15,1.44-6.6,2.17-10.25,2.17-.13,0-.25,0-.38-.01h-.17s-42.8,0-42.8,0c-1.83,0-3.02-1.17-3.02-2.99v-13.87c-3.18,2.31-7.02,3.47-11.46,3.47h-4.88v10.5c0,1.82-1.18,2.99-3,2.99h-11.99c-.08,0-.16,0-.22-.01-.09,0-.18.01-.29.01h-11.97c-1.05,0-2.55-.38-3.72-2.17l-5.25-8v7.18c0,1.82-1.17,2.99-2.99,2.99h-11.99l-.31-.02Zm36.92-2.97h.02s-.01,0-.02,0Zm-.07-.01h11.88v-10.68c0-1.71,1.14-2.81,2.9-2.81h4.99c4.65,0,8.35-1.4,11.32-4.27.12-.12.23-.24.34-.37l2.79-3.02v21.04h42.84c.13,0,.23,0,.33.01.06,0,.12,0,.18,0,3.1,0,6.02-.59,8.7-1.76-2.3-2.82-4.81-7.69-5.91-9.92-.77.2-1.59.31-2.5.33h-.61c-3.13-.1-5.77-1.36-7.89-3.75-1.54-1.73-2.47-3.96-2.62-6.29-.23-3.59,1.01-6.62,3.69-9.01,1.75-1.55,3.99-2.49,6.31-2.64,3.34-.21,6.19.85,8.5,3.15,1.96,1.96,4.52,10.94,5.26,13.64,1.2,4.44,3.82,8.34,7.8,11.6,3.05,2.5,6.86,4.09,10.72,4.49,7.43.77,13.5-1.31,18.54-6.35,1.37-1.37,2.56-2.9,3.55-4.56l2.79-4.69v15.65h11.98v-10.68c0-1.71,1.14-2.81,2.9-2.81h4.99c4.65,0,8.35-1.4,11.32-4.27,2.96-2.86,4.4-6.49,4.4-11.1s-1.44-8.31-4.39-11.18c-2.92-2.84-6.57-4.22-11.15-4.22-.06,0-.12,0-.19,0l-19.86.12v15.67l-2.79-4.69c-.99-1.66-2.18-3.19-3.55-4.56-4.4-4.4-9.53-6.54-15.66-6.54-3.1,0-6.02.59-8.7,1.76,2.25,2.74,4.73,7.52,5.91,9.92.89-.23,1.82-.35,2.79-.35,3.23,0,5.99,1.27,8.21,3.77,1.54,1.73,2.47,3.96,2.62,6.29.23,3.63-1.03,6.68-3.77,9.08-1.71,1.5-3.89,2.41-6.14,2.57-3.39.24-6.27-.82-8.6-3.15-1.96-1.96-4.52-10.94-5.26-13.64-1.2-4.44-3.82-8.34-7.8-11.6-3.05-2.5-6.86-4.09-10.73-4.49-7.44-.76-13.5,1.31-18.54,6.35-4.39,4.39-6.52,9.51-6.52,15.66,0,3.13.59,6.07,1.76,8.76l.91,2.1h-8.96c-1.78,0-2.93-1.2-2.93-3.05V3.3h-11.95v7.48l-2.8-3.03c-.11-.12-.21-.24-.33-.35-2.92-2.84-6.57-4.22-11.15-4.22-.06,0-.12,0-.18,0l-19.86.12v12.36l-2.81-5.05c-.94-1.7-2.21-3.15-3.75-4.33-2.74-2.08-6.1-3.09-9.99-3.1l-19.89.12.03,44.14h11.95s0-9.66,0-9.66c.08-.81.36-1.42.84-1.81.41-.33.93-.48,1.45-.42.89.13,1.59.58,2.02,1.27l6.44,9.81c.47.72.9.82,1.21.82h10.69l-7.24-11.05c-.56-.71-.83-1.39-.83-2.07,0-.57.2-1.62,1.57-2.33,2.42-1.28,4.22-3.04,5.48-5.37l2.82-5.21.02,26.03h.07Zm-53.93-6.27c.59,0,1.41.27,1.96,1.55l1.85,4.12c.25.56.5.61.79.61h11.14l-4.41-9.79c-2.11-4.7-3.67-8.17-4.66-10.42v-.02c-.53-1.23-.55-2.47-.06-3.58L34.81,3.3h-11.14c-.3,0-.54.04-.79.61-.38.86-.66,1.51-.84,1.93-1.03,2.41-1.74,3.56-2.99,3.56-.6,0-1.43-.28-2.04-1.61l-1.74-3.87c-.25-.56-.5-.61-.79-.61H3.36c4.03,9.04,7.13,15.96,9.22,20.6.42.97.42,1.97.01,2.91L3.36,47.45h11.11c.29,0,.54-.04.79-.61l.95-2.05c.29-.66.59-1.36.9-2.06.55-1.28,1.37-1.55,1.96-1.55Zm47.15-6.64s.02.02.03.04l.09.12,3.56,5.44v-8.32c-1.07,1.05-2.3,1.96-3.69,2.72Zm-15.97,3.91s0,0,0,0h0Zm-21.77-12.41c1,2.25,2.54,5.72,4.65,10.4l.33.73V13.62l-5.05,11.24c-.1.23-.19.57.07,1.17Zm22.78-1.92c-.95,0-1.54-.38-1.88-.7-.55-.53-.84-1.28-.84-2.24v-3.87c.04-1.77,1.21-2.9,2.99-2.9h.4c2.91,0,4.8.18,5.98.56,1.88.65,2.89,2.12,2.89,4.14-.03,2.05-1.04,3.52-2.86,4.16h-.01c-1.15.4-3.09.66-5.92.81l-.58.03c-.06,0-.12,0-.17,0Zm.28-6.7v3.69h.31c3.12-.18,4.5-.46,5.11-.67.53-.19.83-.47.85-1.34,0-.82-.31-1.09-.85-1.27-.55-.18-1.9-.4-5.02-.4h-.39Zm36.83,6.67h-.58c-1.73,0-2.84-1.14-2.84-2.9v-3.87c.04-1.77,1.22-2.9,3.02-2.9h.4c2.97,0,4.87.17,5.98.53,1.86.65,2.86,2.12,2.86,4.17s-1,3.52-2.83,4.16h0c-1.59.55-3.55.82-6,.82Zm-.42-3h.42c2.08,0,3.77-.22,5.02-.65.52-.18.82-.46.82-1.33s-.3-1.14-.82-1.32c-.41-.13-1.65-.37-5.02-.37h-.42v3.67Zm134.45,2.82h-.58c-1.73,0-2.84-1.14-2.84-2.9v-3.87c.04-1.77,1.22-2.9,3.02-2.9h.4c2.97,0,4.87.17,5.98.53,1.86.65,2.86,2.12,2.86,4.17s-1,3.52-2.83,4.16h0c-1.59.55-3.56.82-6,.82Zm-.42-3h.42c2.08,0,3.77-.22,5.02-.65.52-.18.82-.46.82-1.32s-.3-1.14-.82-1.33c-.41-.13-1.65-.37-5.02-.37h-.42v3.67Zm-.26,0h0,0Z"/></g></svg>