<?xml version="1.0" encoding="UTF-8"?><svg id="Layer_2" xmlns="http://www.w3.org/2000/svg" viewBox="0 0 242.53 47.45"><g id="Layer_1-2"><path d="m237.69,4.64C234.46,1.51,230.33-.04,225.29,0l-19.98.12c-.91,0-1.37.5-1.37,1.49v10.22c-1.02-1.71-2.26-3.34-3.78-4.85C195.51,2.33,189.94,0,183.44,0c-3.49,0-6.7.69-9.65,2.04-.76.35-.9,1.34-.36,1.98,2.39,2.82,5.17,8.35,6.11,10.3.19.4.64.56,1.06.43.89-.28,1.83-.42,2.83-.42,2.8,0,5.16,1.09,7.09,3.26,1.31,1.48,2.11,3.41,2.24,5.38.2,3.15-.89,5.77-3.26,7.86-1.45,1.27-3.33,2.06-5.25,2.2-2.94.21-5.42-.69-7.43-2.71-1.83-1.83-4.88-12.98-4.88-12.98-1.27-4.72-4.01-8.85-8.3-12.36-3.28-2.68-7.31-4.39-11.52-4.82-7.84-.81-14.42,1.45-19.75,6.78-4.64,4.64-6.96,10.22-6.96,16.72,0,3.37.64,6.49,1.88,9.36h-6.68c-.95,0-1.43-.52-1.43-1.55V1.79c0-.99-.5-1.49-1.49-1.49h-11.94c-1.01,0-1.52.5-1.52,1.49v3.66c-.19-.21-.38-.43-.58-.63-3.23-3.14-7.36-4.68-12.39-4.64l-19.98.12c-.91,0-1.37.5-1.37,1.49v6.59c-1.04-1.87-2.42-3.47-4.16-4.79-3.02-2.29-6.66-3.43-10.9-3.41l-19.98.12c-.11,0-.19.03-.29.04-.13-.03-.27-.04-.44-.04h-11.97c-1,0-1.72.5-2.16,1.49-.39.87-.67,1.52-.85,1.95-.75,1.77-1.29,2.65-1.61,2.65-.22,0-.45-.24-.67-.73l-1.74-3.87c-.45-1-1.17-1.49-2.16-1.49H1.04C.35.3,0,.55,0,1.03c0,.2.07.46.21.76,4.2,9.44,7.37,16.52,9.5,21.23.24.57.24,1.14,0,1.71L.21,45.96c-.14.3-.21.56-.21.76,0,.49.35.73,1.04.73h11.94c.99,0,1.71-.5,2.16-1.49l.94-2.04c.3-.69.61-1.39.91-2.1.18-.43.37-.64.58-.64s.4.21.58.64l1.86,4.14c.45,1,1.17,1.49,2.16,1.49h11.97c.18,0,.33-.02.46-.05.12.02.22.05.36.05h12c1,0,1.49-.5,1.49-1.49v-9.53c.06-.63.27-.92.64-.88.41.06.71.26.91.58l6.46,9.84c.65,1,1.47,1.49,2.47,1.49h11.97c.12,0,.22-.01.32-.03.07,0,.12.03.19.03h11.99c1,0,1.49-.5,1.49-1.49v-10.69c0-.87.47-1.31,1.4-1.31h4.99c5.01,0,9.13-1.56,12.36-4.69.21-.2.4-.42.59-.64v17.23c0,.99.51,1.49,1.52,1.49h42.82c.17,0,.34.02.52.02,3.48,0,6.68-.69,9.63-2.03.77-.35.92-1.35.38-2-2.31-2.75-4.94-7.91-5.98-10.03-.27-.55-.89-.76-1.48-.6-.73.2-1.49.3-2.29.32h-.57c-2.65-.08-4.91-1.16-6.77-3.25-1.31-1.48-2.11-3.41-2.24-5.39-.2-3.12.87-5.72,3.19-7.79,1.49-1.32,3.42-2.14,5.41-2.26,2.9-.18,5.35.72,7.34,2.72,1.83,1.83,4.88,12.98,4.88,12.98,1.27,4.72,4.01,8.85,8.3,12.36,3.28,2.68,7.31,4.39,11.52,4.82,7.84.81,14.43-1.45,19.76-6.78,1.51-1.51,2.76-3.14,3.78-4.85v10.2c0,1,.5,1.49,1.5,1.49h11.99c1,0,1.49-.5,1.49-1.49v-10.69c0-.87.47-1.31,1.4-1.31h4.99c5.01,0,9.13-1.56,12.36-4.69,3.23-3.13,4.85-7.19,4.85-12.18s-1.61-9.12-4.84-12.26ZM25.61,25.12c-.36-.85-.39-1.65-.06-2.38l7.92-17.63v37.52l-3.2-7.1c-2.11-4.69-3.66-8.16-4.66-10.42Zm30.33-4.78c-1.01.35-2.85.59-5.51.73l-.58.03c-.87.04-1.31-.44-1.31-1.43v-3.87c.02-.93.52-1.4,1.49-1.4h.4c2.68,0,4.52.16,5.51.49,1.24.43,1.86,1.33,1.86,2.71-.02,1.4-.64,2.31-1.86,2.74Zm7.1,12.49c0-.41.25-.74.76-1,2.69-1.43,4.72-3.43,6.11-5.99v17.82l-6.32-9.64c-.36-.45-.55-.84-.55-1.19Zm29.34-12.49c-1.42.49-3.26.73-5.51.73h-.58c-.89,0-1.34-.47-1.34-1.4v-3.87c.02-.93.53-1.4,1.52-1.4h.4c2.74,0,4.58.15,5.51.46,1.22.43,1.83,1.34,1.83,2.74s-.61,2.31-1.83,2.74Zm134.03-.18c-1.42.49-3.26.73-5.51.73h-.58c-.89,0-1.34-.47-1.34-1.4v-3.87c.02-.93.53-1.4,1.52-1.4h.4c2.74,0,4.58.15,5.51.46,1.22.43,1.83,1.34,1.83,2.74s-.61,2.31-1.83,2.74Z"/></g></svg>